<svg width="20" height="20" viewBox="0 0 20 20" fill="none" xmlns="http://www.w3.org/2000/svg">
<path fill-rule="evenodd" clip-rule="evenodd" d="M15.8929 15.8916C13.3461 18.4387 9.57489 18.989 6.48876 17.5618C6.03317 17.3783 5.65965 17.2301 5.30456 17.2301C4.31549 17.2359 3.08439 18.195 2.44455 17.5559C1.80471 16.916 2.76447 15.6839 2.76447 14.6889C2.76447 14.3337 2.62209 13.9669 2.43869 13.5104C1.01077 10.4248 1.56184 6.65232 4.10863 4.10609C7.35975 0.853775 12.6418 0.853775 15.8929 4.10525C19.1499 7.36259 19.144 12.6402 15.8929 15.8916Z" stroke="#2F180A" stroke-linecap="round" stroke-linejoin="round"/>
<path d="M13.283 10.3442H13.2905" stroke="#2F180A" stroke-linecap="round" stroke-linejoin="round"/>
<path d="M9.94214 10.3442H9.94964" stroke="#2F180A" stroke-linecap="round" stroke-linejoin="round"/>
<path d="M6.60132 10.3442H6.60882" stroke="#2F180A" stroke-linecap="round" stroke-linejoin="round"/>
</svg>
