<svg width="25" height="22" viewBox="0 0 25 22" fill="none" xmlns="http://www.w3.org/2000/svg">
<path d="M2.50362 5.14437C2.73385 5.0129 3.00686 4.97823 3.26263 5.04799C3.51841 5.11775 3.73602 5.28622 3.86762 5.51637C6.35962 9.87437 10.4756 10.0124 13.9996 10.0124L21.0856 10.0124L16.7926 5.71937C16.6971 5.62712 16.6209 5.51678 16.5685 5.39477C16.5161 5.27277 16.4885 5.14155 16.4874 5.00877C16.4862 4.87599 16.5115 4.74431 16.5618 4.62142C16.6121 4.49852 16.6863 4.38687 16.7802 4.29298C16.8741 4.19908 16.9858 4.12483 17.1087 4.07455C17.2316 4.02427 17.3632 3.99897 17.496 4.00012C17.6288 4.00127 17.76 4.02886 17.882 4.08127C18.004 4.13368 18.1144 4.20986 18.2066 4.30537L24.2066 10.3054C24.3941 10.4929 24.4994 10.7472 24.4994 11.0124C24.4994 11.2775 24.3941 11.5318 24.2066 11.7194L18.2066 17.7194C18.1144 17.8149 18.004 17.8911 17.882 17.9435C17.76 17.9959 17.6288 18.0235 17.496 18.0246C17.3632 18.0258 17.2316 18.0005 17.1087 17.9502C16.9858 17.8999 16.8741 17.8257 16.7802 17.7318C16.6863 17.6379 16.6121 17.5262 16.5618 17.4033C16.5115 17.2804 16.4862 17.1487 16.4874 17.016C16.4885 16.8832 16.5161 16.752 16.5685 16.63C16.6209 16.508 16.6971 16.3976 16.7926 16.3054L21.0856 12.0124H13.9996C10.5246 12.0124 5.24062 11.9494 2.13162 6.50837C2.00015 6.27815 1.96548 6.00513 2.03524 5.74936C2.105 5.49358 2.27347 5.27597 2.50362 5.14437Z" fill="black"/>
</svg>
